<?xml version="1.0" encoding="iso-8859-1"?>
<!-- Uploaded to: SVG Repo, www.svgrepo.com, Generator: SVG Repo Mixer Tools -->
<svg height="800px" width="800px" version="1.1" id="Layer_1" xmlns="http://www.w3.org/2000/svg" xmlns:xlink="http://www.w3.org/1999/xlink" 
	 viewBox="0 0 392.546 392.546" xml:space="preserve">
<path style="fill:#FFFFFF;" d="M213.243,129.177l-180.816-0.259c-5.818,0-10.537,5.107-10.537,11.313v219.475
	c0,6.012,4.848,10.925,10.925,10.925h327.046c6.012,0,10.925-4.849,10.925-10.925V140.231c0-6.012-4.848-10.925-10.925-10.925"/>
<polyline style="fill:#56ACE0;" points="197.017,151.027 43.675,150.769 43.675,348.845 348.936,348.845 348.936,151.157 "/>
<path style="fill:#FFC10D;" d="M347.449,25.807L218.415,154.841l-3.232,22.497l22.497-3.232L366.714,45.072
	c5.301-5.301,5.301-13.964,0-19.265C361.607,20.635,352.556,20.635,347.449,25.807z"/>
<g>
	<path style="fill:#194F82;" d="M143.037,203.714H74.188c-6.012,0-10.925-4.848-10.925-10.925c0-6.077,4.848-10.925,10.925-10.925
		h68.784c6.012,0,10.925,4.848,10.925,10.925C153.897,198.801,148.984,203.714,143.037,203.714z"/>
	<path style="fill:#194F82;" d="M239.748,263.254H74.253c-6.012,0-10.925-4.848-10.925-10.925c0-6.012,4.848-10.925,10.925-10.925
		h165.495c6.012,0,10.925,4.848,10.925,10.925C250.609,258.405,245.76,263.254,239.748,263.254z"/>
	<path style="fill:#194F82;" d="M143.037,322.858H74.188c-6.012,0-10.925-4.848-10.925-10.925c0-6.012,4.848-10.925,10.925-10.925
		h68.784c6.012,0,10.925,4.848,10.925,10.925C153.962,318.009,148.984,322.858,143.037,322.858z"/>
	<path style="fill:#194F82;" d="M271.748,330.744c-0.323,0-0.646,0-0.905,0c-3.168-0.259-6.077-1.939-7.952-4.59l-4.396-6.206
		l-7.564,7.564c-4.267,4.267-11.119,4.331-15.386,0.065c-4.267-4.267-4.331-11.119-0.065-15.451l16.614-16.679
		c2.263-2.263,5.43-3.491,8.663-3.168c3.168,0.259,6.077,1.939,7.952,4.59l4.396,6.206l7.499-7.499
		c2.909-3.038,7.37-4.008,11.378-2.65l23.725,8.339c5.624,2.004,8.663,8.21,6.659,13.899c-2.004,5.624-8.21,8.663-13.899,6.659
		l-17.261-6.077l-11.766,11.766C277.437,329.581,274.657,330.744,271.748,330.744z"/>
	<path style="fill:#194F82;" d="M359.796,107.714h-24.76l47.063-47.063c13.834-13.834,13.834-36.331,0-50.101
		c-15.903-14.675-36.267-13.446-50.101,0l-97.034,96.97l-202.602-0.259c-17.778,0-32.323,14.804-32.323,33.099v219.475
		c0,18.036,14.675,32.711,32.711,32.711h327.046c18.036,0,32.711-14.675,32.711-32.711v-219.41
		C392.508,122.389,377.833,107.714,359.796,107.714z M218.415,155.035L347.449,26.001c5.172-5.172,14.158-5.172,19.265,0
		c5.301,5.301,5.301,13.964,0,19.265l-129.099,128.97l-22.497,3.232L218.415,155.035z M370.722,359.835
		c0,6.012-4.848,10.925-10.925,10.925H32.815c-6.012,0-10.925-4.848-10.925-10.925v-219.41c0-6.271,4.719-11.313,10.537-11.313
		l180.816,0.259l-12.8,12.8c-1.681,1.681-2.78,3.879-3.103,6.206l-5.818,40.469c-0.453,3.426,0.711,6.788,3.103,9.244
		c2.715,2.65,5.883,3.491,9.244,3.103l40.469-5.818c2.327-0.323,4.461-1.422,6.206-3.103l62.836-62.836l46.545,0.065
		c6.012,0,10.925,4.848,10.925,10.925v219.41H370.722z"/>
</g>
</svg>