<?xml version="1.0" encoding="iso-8859-1"?>
<!-- Uploaded to: SVG Repo, www.svgrepo.com, Generator: SVG Repo Mixer Tools -->
<svg height="800px" width="800px" version="1.1" id="Layer_1" xmlns="http://www.w3.org/2000/svg" xmlns:xlink="http://www.w3.org/1999/xlink" 
	 viewBox="0 0 508 508" xml:space="preserve">
<path style="fill:#FFFFFF;" d="M465.7,253.4c7.8,0,14.1-6.3,14.1-14.1v-197c0-7.8-6.3-14.1-14.1-14.1H221.2
	c-7.8,0-14.1,6.3-14.1,14.1v197c0,7.8,6.3,14.1,14.1,14.1H465.7z"/>
<path style="fill:#56ACE0;" d="M381.8,202.8c-7.8,0-14.1-6.3-14.1-14.1s6.3-14.1,14.1-14.1h69.7V56.3H235.3V225h216.2v-22.2H381.8z"
	/>
<path style="fill:#FFC10D;" d="M76.7,202.4c-26.7,0-48.5,21.7-48.5,48.5v66.3c0,7.8,6.3,14.1,14.1,14.1H111
	c7.8,0,14.1-6.3,14.1-14.1v-66.3C125.2,224.1,103.4,202.4,76.7,202.4z"/>
<path style="fill:#194F82;" d="M76.7,174.1C34.4,174.1,0,208.5,0,250.8v66.3C0,336,12.4,352,29.5,357.4v136.4
	c0,7.8,6.3,14.1,14.1,14.1s14.1-6.3,14.1-14.1V359.4h37.9v134.5c0,7.8,6.3,14.1,14.1,14.1s14.1-6.3,14.1-14.1V357.4
	c17.1-5.4,29.5-21.5,29.5-40.3v-66.3C153.4,208.5,119,174.1,76.7,174.1z M125.2,317.1c0,7.8-6.3,14.1-14.1,14.1H42.3
	c-7.8,0-14.1-6.3-14.1-14.1v-66.3c0-26.7,21.7-48.5,48.5-48.5s48.5,21.7,48.5,48.5V317.1z"/>
<path style="fill:#FFFFFF;" d="M76.7,68.1C63.1,68.1,52,79.2,52,92.8s11.1,24.7,24.7,24.7s24.7-11.1,24.7-24.7
	C101.4,79.2,90.3,68.1,76.7,68.1z"/>
<g>
	<path style="fill:#194F82;" d="M76.7,39.9c-29.2,0-52.9,23.7-52.9,52.9s23.7,52.9,52.9,52.9s52.9-23.7,52.9-52.9
		S105.9,39.9,76.7,39.9z M76.7,117.4c-13.6,0-24.7-11.1-24.7-24.7S63.1,68,76.7,68s24.7,11.1,24.7,24.7
		C101.4,106.4,90.3,117.4,76.7,117.4z"/>
	<path style="fill:#194F82;" d="M441.2,51.1l-42.6,43L344,71c-3.8-1.6-8.1-1.5-11.8,0.4s-6.4,5.3-7.4,9.3l-16.3,67.5L281.2,126
		c-3.4-2.8-7.9-3.8-12.2-2.8s-7.8,4-9.6,8.1L222.7,215c-3.1,7.1,0.1,15.5,7.3,18.6c8,3.2,15.7-1,18.6-7.3l29.2-66.8l30.2,24.6
		c3.8,3.1,8.8,4,13.4,2.4c4.6-1.5,8.1-5.3,9.2-10.1l17.7-73.1l48.1,20.3c5.3,2.2,11.4,1,15.5-3.1l49.3-49.8c5.5-5.5,5.4-14.5-0.1-20
		C455.6,45.5,446.7,45.5,441.2,51.1z"/>
	<path style="fill:#194F82;" d="M465.7,0H221.2c-23.3,0-42.3,19-42.3,42.3v197c0,23.3,19,42.3,42.3,42.3h32.2l-49.1,209
		c-1.8,7.6,2.9,15.2,10.5,17s15.2-2.9,17-10.5l17.7-75.2h187.9l17.7,75.2c1.8,7.6,9.4,12.3,17,10.5c7.6-1.8,12.3-9.4,10.5-17
		l-49.1-209h32.2c23.3,0,42.3-19,42.3-42.3v-197C508,19,489,0,465.7,0z M256.1,393.7l26.3-112h122l26.3,112H256.1z M479.8,239.3
		c0,7.8-6.3,14.1-14.1,14.1H221.2c-7.8,0-14.1-6.3-14.1-14.1v-197c0-7.8,6.3-14.1,14.1-14.1h244.5c7.8,0,14.1,6.3,14.1,14.1
		L479.8,239.3L479.8,239.3z"/>
</g>
</svg>