<?xml version="1.0" encoding="iso-8859-1"?>
<!-- Uploaded to: SVG Repo, www.svgrepo.com, Generator: SVG Repo Mixer Tools -->
<svg version="1.1" id="Layer_1" xmlns="http://www.w3.org/2000/svg" xmlns:xlink="http://www.w3.org/1999/xlink" 
	 viewBox="0 0 392.663 392.663" xml:space="preserve">
<path style="fill:#194F82;" d="M392.566,32.711C392.566,14.675,377.891,0,359.855,0H32.743C14.707,0,0.032,14.675,0.032,32.711
	v197.754c0,18.036,14.675,32.711,32.711,32.711h160.776c-2.521,8.857-4.008,18.23-4.008,27.927
	c0,55.919,45.511,101.56,101.56,101.56c55.919,0,101.56-45.511,101.56-101.56c0-13.899-2.844-27.216-7.952-39.305
	c5.042-5.818,7.952-13.317,7.952-21.269V32.711H392.566z M291.006,370.747c-43.96,0-79.644-35.749-79.644-79.644
	c0-43.96,35.749-79.644,79.644-79.644c43.96,0,79.644,35.749,79.644,79.644C370.78,334.998,335.03,370.747,291.006,370.747z
	 M370.78,228.331c-18.618-23.661-47.386-38.853-79.644-38.853c-37.947,0-70.982,20.945-88.372,51.846H32.743
	c-6.012,0-10.925-4.848-10.925-10.925V125.802H370.78L370.78,228.331L370.78,228.331z M370.78,104.016H21.818V67.103H370.78
	L370.78,104.016L370.78,104.016z M370.78,45.253H21.818V32.711c0-6.012,4.848-10.925,10.925-10.925h327.111
	c6.012,0,10.925,4.848,10.925,10.925v12.606l0,0V45.253z"/>
<g>
	<path style="fill:#56ACE0;" d="M202.634,241.325c17.455-30.901,50.554-51.846,88.372-51.846c32.323,0,61.091,15.192,79.644,38.853
		V125.802H21.818V230.4c0,6.012,4.848,10.925,10.925,10.925L202.634,241.325L202.634,241.325z"/>
	<path style="fill:#56ACE0;" d="M370.78,32.711c0-6.012-4.848-10.925-10.925-10.925H32.743c-6.012,0-10.925,4.848-10.925,10.925
		v12.606H370.78L370.78,32.711L370.78,32.711z"/>
</g>
<g>
	<path style="fill:#FFC10D;" d="M291.006,211.329c-43.96,0-79.644,35.749-79.644,79.644c0,43.96,35.749,79.644,79.644,79.644
		c43.96,0,79.644-35.749,79.644-79.644C370.78,247.143,335.03,211.329,291.006,211.329z"/>
	<rect x="21.818" y="67.038" style="fill:#FFC10D;" width="348.962" height="36.913"/>
</g>
<g>
	<path style="fill:#194F82;" d="M56.21,176.808h131.491c6.012,0,10.925-4.848,10.925-10.925c0-6.012-4.848-10.925-10.925-10.925
		H56.21c-6.012,0-10.925,4.848-10.925,10.925C45.285,171.895,50.198,176.808,56.21,176.808z"/>
	<path style="fill:#194F82;" d="M56.21,220.38h76.994c6.012,0,10.925-4.848,10.925-10.925c0-6.012-4.848-10.925-10.925-10.925H56.21
		c-6.012,0-10.925,4.848-10.925,10.925S50.198,220.38,56.21,220.38z"/>
	<path style="fill:#194F82;" d="M338.069,248.501c-4.008-4.396-10.925-4.784-15.386-0.776l-77.834,70.335
		c-4.461,4.008-4.784,10.925-0.776,15.386c4.784,5.172,11.313,4.396,15.386,0.776l77.899-70.335
		C341.818,259.879,342.141,252.962,338.069,248.501z"/>
	<path style="fill:#194F82;" d="M257.131,263.046h9.632c6.012,0,10.925-4.848,10.925-10.925c0-6.077-4.848-10.925-10.925-10.925
		h-9.632c-6.012,0-10.925,4.848-10.925,10.925C246.206,258.198,251.055,263.046,257.131,263.046z"/>
	<path style="fill:#194F82;" d="M325.01,318.966h-9.632c-6.012,0-10.925,4.848-10.925,10.925c0,6.077,4.848,10.925,10.925,10.925
		h9.632c6.012,0,10.925-4.848,10.925-10.925C335.935,323.943,331.087,318.966,325.01,318.966z"/>
</g>
</svg>