<?xml version="1.0" encoding="iso-8859-1"?>
<!-- Uploaded to: SVG Repo, www.svgrepo.com, Generator: SVG Repo Mixer Tools -->
<svg height="800px" width="800px" version="1.1" id="Layer_1" xmlns="http://www.w3.org/2000/svg" xmlns:xlink="http://www.w3.org/1999/xlink" 
	 viewBox="0 0 392.598 392.598" xml:space="preserve">
<circle style="fill:#FFC10D;" cx="196.267" cy="196.234" r="121.471"/>
<g>
	<path style="fill:#194F82;" d="M196.396,207.224c-0.065,0-0.065,0-0.129,0C195.879,207.289,196.267,207.224,196.396,207.224z"/>
	<path style="fill:#194F82;" d="M194.521,185.309c0.065,0,0.065,0,0.065,0C194.974,185.244,194.586,185.244,194.521,185.309z"/>
	<path style="fill:#194F82;" d="M194.586,185.309c-0.129,0-0.129,0-0.065,0c-11.96-0.905-21.398-10.99-21.398-23.079
		c0-12.8,10.408-23.208,23.208-23.208s23.208,10.408,23.208,23.208c0,6.012,4.848,10.925,10.925,10.925
		c6.012,0,10.925-4.848,10.925-10.925c0-21.075-14.545-38.723-34.133-43.636V107.41c0-6.012-4.848-10.925-10.925-10.925
		s-10.925,4.848-10.925,10.925v11.184c-19.523,4.848-34.133,22.562-34.133,43.636c0,24.824,20.17,45.059,45.059,45.059
		c0.129,0,0.129,0,0.129,0c11.96,0.905,23.079,10.796,23.079,23.014c0,12.8-10.408,23.208-23.208,23.208
		s-23.208-10.408-23.208-23.208c0-6.012-4.848-10.925-10.925-10.925c-6.012,0-10.925,4.848-10.925,10.925
		c0,21.075,14.545,38.723,34.133,43.636v11.119c0,6.012,4.848,10.925,10.925,10.925s10.925-4.848,10.925-10.925v-11.119
		c19.523-4.848,34.133-22.562,34.133-43.636C241.325,205.414,219.345,185.309,194.586,185.309z"/>
</g>
<g>
	<path style="fill:#194F82;" d="M196.267,21.818c49.972,0,97.228,21.527,130.133,58.44h-42.861c-6.012,0-10.925,4.848-10.925,10.925
		c0,6.012,4.848,10.925,10.925,10.925h65.422c6.012,0,10.925-4.848,10.925-10.925V25.697c0-6.012-4.848-10.925-10.925-10.925
		c-6.077,0-10.925,4.848-10.925,10.925v34.974c-36.784-38.4-87.725-60.638-141.77-60.638C87.984,0.032,0,88.016,0,196.299
		c0,6.012,4.848,10.925,10.925,10.925s10.925-4.848,10.925-10.925C21.786,100.105,100.073,21.818,196.267,21.818z"/>
	<path style="fill:#194F82;" d="M381.673,185.374c-6.012,0-10.925,4.848-10.925,10.925c0,96.194-78.287,174.481-174.481,174.481
		c-58.117,0-111.903-28.897-144.162-76.347h46.028c6.012,0,10.925-4.848,10.925-10.925c0-6.012-4.848-10.925-10.925-10.925H32.711
		c-6.012,0-10.925,4.848-10.925,10.925v65.422c0,6.012,4.848,10.925,10.925,10.925s10.925-4.848,10.925-10.925v-29.414
		c36.848,45.64,92.703,73.051,152.695,73.051c108.283,0,196.267-87.984,196.267-196.267
		C392.533,190.287,387.685,185.374,381.673,185.374z"/>
</g>
</svg>