<?xml version="1.0" encoding="iso-8859-1"?>
<!-- Uploaded to: SVG Repo, www.svgrepo.com, Generator: SVG Repo Mixer Tools -->
<svg version="1.1" id="Layer_1" xmlns="http://www.w3.org/2000/svg" xmlns:xlink="http://www.w3.org/1999/xlink" 
	 viewBox="0 0 392.533 392.533" xml:space="preserve">
<path style="fill:#FFFFFF;" d="M359.822,129.39l-46.545-0.065l-62.836,62.836c-1.681,1.681-3.879,2.78-6.206,3.103l-40.469,5.818
	c-4.008,0.129-7.176-0.776-9.244-3.103c-2.392-2.392-3.556-5.883-3.103-9.244l5.818-40.469c0.323-2.327,1.422-4.461,3.103-6.206
	l12.8-12.8l-180.881-0.259c-5.818,0-10.537,5.107-10.537,11.313v219.539c0,6.012,4.848,10.925,10.925,10.925h327.111
	c6.012,0,10.925-4.848,10.925-10.925V140.315C370.747,134.238,365.834,129.39,359.822,129.39z"/>
<path style="fill:#FFC10D;" d="M218.376,154.925l-3.232,22.497l22.497-3.232L366.739,45.091c2.521-2.521,4.008-6.012,4.008-9.632
	c0-3.62-1.422-7.046-4.008-9.632c-5.172-5.172-14.158-5.172-19.265,0L218.376,154.925z"/>
<path style="fill:#56ACE0;" d="M196.913,150.788l-153.277-0.129V348.8h305.325V151.046l-40.21-0.065h-17.067l-41.18,41.18
	c-1.681,1.681-3.879,2.78-6.206,3.103l-40.469,5.818c-4.008,0.129-7.176-0.776-9.244-3.103c-2.392-2.392-3.556-5.883-3.103-9.244
	L196.913,150.788z"/>
<rect x="88.889" y="189.188" style="fill:#FFC10D;" width="36.913" height="36.913"/>
<g>
	<path style="fill:#194F82;" d="M136.663,167.337H77.964c-6.012,0-10.925,4.848-10.925,10.925v58.699
		c0,6.012,4.848,10.925,10.925,10.925h58.699c6.012,0,10.925-4.848,10.925-10.925v-58.699
		C147.588,172.251,142.739,167.337,136.663,167.337z M125.802,226.036H88.889v-36.913h36.913V226.036z"/>
	<path style="fill:#194F82;" d="M96.84,309.883H77.964c-6.012,0-10.925,4.849-10.925,10.925c0,6.012,4.848,10.925,10.925,10.925
		H96.84c6.012,0,10.925-4.848,10.925-10.925C107.701,314.796,102.853,309.883,96.84,309.883z"/>
	<path style="fill:#194F82;" d="M163.879,309.883h-18.877c-6.012,0-10.925,4.849-10.925,10.925c0,6.012,4.848,10.925,10.925,10.925
		h18.877c6.012,0,10.925-4.848,10.925-10.925C174.804,314.796,169.891,309.883,163.879,309.883z"/>
</g>
<g>
	<path style="fill:#FFC10D;" d="M295.628,275.297c-1.616,0-3.168,0.323-4.719,0.776c2.327,4.913,3.62,10.408,3.62,16.226
		s-1.293,11.313-3.62,16.226c1.552,0.453,3.103,0.776,4.719,0.776c9.374,0,17.002-7.628,17.002-17.002
		C312.63,282.861,305.002,275.297,295.628,275.297z"/>
	<path style="fill:#FFC10D;" d="M272.743,292.299c0-9.374-7.628-17.002-17.002-17.002c-9.374,0-17.002,7.628-17.002,17.002
		s7.628,17.002,17.002,17.002C265.115,309.236,272.743,301.608,272.743,292.299z"/>
</g>
<g>
	<path style="fill:#194F82;" d="M295.628,253.446c-7.176,0-13.899,2.004-19.846,5.624c-5.883-3.556-12.671-5.624-20.04-5.624
		c-21.398,0-38.788,17.39-38.788,38.788s17.39,38.788,38.788,38.788c7.24,0,14.093-2.069,19.911-5.56
		c5.947,3.62,12.8,5.56,19.911,5.56c21.398,0,38.788-17.39,38.788-38.788C334.416,270.901,317.026,253.446,295.628,253.446z
		 M295.628,309.236c-1.616,0-3.168-0.323-4.719-0.776c2.327-4.913,3.62-10.408,3.62-16.226s-1.293-11.313-3.62-16.226
		c1.552-0.453,3.103-0.776,4.719-0.776c9.374,0,17.002,7.628,17.002,17.002S305.002,309.236,295.628,309.236z M238.739,292.299
		c0-9.374,7.628-17.002,17.002-17.002c9.374,0,17.002,7.628,17.002,17.002s-7.628,17.002-17.002,17.002
		C246.432,309.236,238.739,301.608,238.739,292.299z"/>
	<path style="fill:#194F82;" d="M188.897,264.566H77.964c-6.012,0-10.925,4.848-10.925,10.925c0,6.012,4.848,10.925,10.925,10.925
		h110.933c6.012,0,10.925-4.848,10.925-10.925S194.974,264.566,188.897,264.566z"/>
	<path style="fill:#194F82;" d="M359.822,107.539h-24.76l47.063-47.063c6.723-6.723,10.343-15.58,10.343-25.018
		c0-9.503-3.685-18.36-10.343-25.018c-6.723-6.723-15.58-10.408-25.083-10.408c-9.503,0-18.36,3.685-25.018,10.343l-97.034,96.97
		l-202.667-0.259C14.545,107.087,0,121.956,0,140.251V359.79c0,18.036,14.675,32.711,32.711,32.711h327.111
		c18.036,0,32.711-14.675,32.711-32.711V140.315C392.533,122.214,377.859,107.539,359.822,107.539z M218.376,154.925L347.475,25.826
		c5.172-5.172,14.158-5.172,19.265,0c2.521,2.521,4.008,6.012,4.008,9.632c0,3.62-1.422,7.046-4.008,9.632L237.576,174.125
		l-22.497,3.232L218.376,154.925z M370.747,359.79c0,6.012-4.848,10.925-10.925,10.925H32.711c-6.012,0-10.925-4.848-10.925-10.925
		V140.315c0-6.271,4.719-11.313,10.537-11.313l180.881,0.259l-12.8,12.8c-1.681,1.681-2.78,3.879-3.103,6.206l-5.818,40.469
		c-0.453,3.426,0.711,6.788,3.103,9.244c2.069,2.327,5.172,3.232,9.244,3.103l40.469-5.818c2.327-0.323,4.461-1.422,6.206-3.103
		l62.836-62.836l46.545,0.065c6.012,0,10.925,4.848,10.925,10.925L370.747,359.79L370.747,359.79z"/>
</g>
</svg>