<?xml version="1.0" encoding="iso-8859-1"?>
<!-- Uploaded to: SVG Repo, www.svgrepo.com, Generator: SVG Repo Mixer Tools -->
<svg height="800px" width="800px" version="1.1" id="Layer_1" xmlns="http://www.w3.org/2000/svg" xmlns:xlink="http://www.w3.org/1999/xlink" 
	 viewBox="0 0 392.598 392.598" xml:space="preserve">
<path style="fill:#FFFFFF;" d="M303.192,128.646c0-58.958-47.903-106.861-106.861-106.861S89.471,69.689,89.471,128.646
	c0,46.416,70.271,171.766,106.861,232.21C232.986,300.412,303.192,175.192,303.192,128.646z"/>
<path style="fill:#56ACE0;" d="M196.331,318.061c-41.503-71.564-85.075-158.319-85.075-189.543
	c0-46.933,38.141-85.075,85.075-85.075s85.075,38.141,85.075,85.075C281.406,159.741,237.834,246.562,196.331,318.061z"/>
<g>
	<path style="fill:#194F82;" d="M213.657,217.341v-9.826c15.838-4.008,27.669-18.36,27.669-35.491
		c0-20.17-16.485-36.655-36.655-36.655h-16.743c-8.21,0-14.804-6.659-14.804-14.869s6.594-14.739,14.804-14.739H230.4
		c6.012,0,10.925-4.848,10.925-10.925c0-6.077-4.848-10.925-10.925-10.925h-16.743v-8.727c0-6.012-4.848-10.925-10.925-10.925
		c-6.012,0-10.925,4.848-10.925,10.925v8.598h-3.879c-20.17,0-36.655,16.485-36.655,36.655s16.485,36.655,36.655,36.655h16.808
		c8.21,0,14.869,6.659,14.869,14.804c0,8.21-6.659,14.869-14.869,14.869h-42.473c-6.012,0-10.925,4.848-10.925,10.925
		c0,6.012,4.848,10.925,10.925,10.925h29.673v8.663c0,6.012,4.848,10.925,10.925,10.925
		C208.743,228.267,213.657,223.418,213.657,217.341z"/>
	<path style="fill:#194F82;" d="M381.737,370.747H215.79c29.091-48.032,109.188-185.665,109.188-242.036
		C324.978,57.729,267.249,0,196.331,0S67.685,57.729,67.685,128.646c0,56.436,80.162,194.004,109.188,242.036H10.925
		C4.913,370.683,0,375.531,0,381.608c0,6.012,4.848,10.99,10.925,10.99h370.747c6.012,0,10.925-4.848,10.925-10.925
		C392.598,375.596,387.749,370.747,381.737,370.747z M196.331,21.786c58.958,0,106.861,47.903,106.861,106.861
		c0,46.416-70.271,171.766-106.861,232.21c-36.655-60.444-106.861-185.665-106.861-232.21
		C89.471,69.754,137.374,21.786,196.331,21.786z"/>
</g>
</svg>