<?xml version="1.0" encoding="iso-8859-1"?>
<!-- Uploaded to: SVG Repo, www.svgrepo.com, Generator: SVG Repo Mixer Tools -->
<svg version="1.1" id="Layer_1" xmlns="http://www.w3.org/2000/svg" xmlns:xlink="http://www.w3.org/1999/xlink" 
	 viewBox="0 0 392.663 392.663" xml:space="preserve">
<path style="fill:#FFFFFF;" d="M202.634,241.325c17.455-30.901,50.554-51.846,88.372-51.846c32.323,0,61.091,15.192,79.644,38.853
	V32.711c0-6.012-4.848-10.925-10.925-10.925H32.743c-6.012,0-10.925,4.848-10.925,10.925v197.754
	c0,6.012,4.848,10.925,10.925,10.925h169.891V241.325z"/>
<path style="fill:#FFC10D;" d="M43.604,219.345h165.495l9.438,0.711c18.36-18.877,44.154-30.578,72.469-30.578
	c21.527,0,41.503,6.788,57.859,18.295V43.507H43.604V219.345z"/>
<g>
	<path style="fill:#56ACE0;" d="M291.006,211.329c-43.96,0-79.644,35.749-79.644,79.644c0,43.96,35.749,79.644,79.644,79.644
		s79.644-35.749,79.644-79.644C370.78,247.143,335.03,211.329,291.006,211.329z"/>
	<rect x="89.762" y="86.82" style="fill:#56ACE0;" width="31.806" height="31.806"/>
</g>
<g>
	<path style="fill:#194F82;" d="M132.493,65.034H78.836c-6.012,0-10.925,4.848-10.925,10.925v53.657
		c0,6.012,4.848,10.925,10.925,10.925h53.657c6.012,0,10.925-4.848,10.925-10.925V75.96
		C143.354,69.947,138.505,65.034,132.493,65.034z M121.568,118.691H89.762V86.885h31.806V118.691z"/>
	<path style="fill:#194F82;" d="M96.097,197.042H78.836c-6.012,0-10.925-4.848-10.925-10.925c0-6.012,4.848-10.925,10.925-10.925
		h17.261c6.012,0,10.925,4.848,10.925,10.925C106.958,192.194,102.109,197.042,96.097,197.042z"/>
	<path style="fill:#194F82;" d="M153.697,197.042h-17.261c-6.012,0-10.925-4.848-10.925-10.925c0-6.012,4.848-10.925,10.925-10.925
		h17.261c6.012,0,10.925,4.848,10.925,10.925C164.622,192.194,159.774,197.042,153.697,197.042z"/>
	<path style="fill:#194F82;" d="M211.362,197.042h-17.261c-6.012,0-10.925-4.848-10.925-10.925c0-6.012,4.848-10.925,10.925-10.925
		h17.261c6.012,0,10.925,4.848,10.925,10.925C222.287,192.194,217.309,197.042,211.362,197.042z"/>
	<path style="fill:#194F82;" d="M316.994,86.82h-74.343c-6.012,0-10.925-4.848-10.925-10.925c0-6.012,4.848-10.925,10.925-10.925
		h74.343c6.012,0,10.925,4.848,10.925,10.925S323.006,86.82,316.994,86.82z"/>
	<path style="fill:#194F82;" d="M321.713,257.745l-46.61,42.02l-13.059-18.941c-3.426-4.913-10.214-6.206-15.127-2.78
		c-4.913,3.426-6.206,10.214-2.78,15.127l20.17,29.156c2.392,2.78,5.172,4.784,8.986,4.719c2.715,0,5.236-1.034,7.37-2.78
		l55.79-50.36c4.461-4.008,4.784-10.925,0.776-15.386C333.156,254.061,326.174,253.673,321.713,257.745z"/>
	<path style="fill:#194F82;" d="M392.566,32.711C392.566,14.675,377.891,0,359.855,0H32.743C14.707,0,0.032,14.675,0.032,32.711
		v197.754c0,18.036,14.675,32.711,32.711,32.711h160.776c-2.521,8.857-4.008,18.23-4.008,27.927
		c0,55.919,45.511,101.56,101.56,101.56s101.56-45.511,101.56-101.56c0-13.899-2.844-27.216-7.952-39.305
		c5.042-5.883,7.952-13.317,7.952-21.269V32.711H392.566z M291.006,370.747c-43.96,0-79.644-35.749-79.644-79.644
		c0-43.96,35.749-79.644,79.644-79.644s79.644,35.749,79.644,79.644C370.78,334.998,335.03,370.747,291.006,370.747z
		 M370.78,228.331c-18.618-23.661-47.386-38.853-79.644-38.853c-37.947,0-70.982,20.945-88.372,51.846H32.743
		c-6.012,0-10.925-4.848-10.925-10.925V32.711c0-6.012,4.848-10.925,10.925-10.925h327.111c6.012,0,10.925,4.848,10.925,10.925
		v195.685l0,0V228.331z"/>
</g>
</svg>